<mxfile host="app.diagrams.net" modified="2022-05-18T14:28:40.763Z" agent="5.0 (Macintosh)" etag="kTzdnkOKAuwAIDDuhooh" version="18.0.7" type="github">
  <diagram id="FjY-7Ksb2wO4chga19lm" name="Page-1">
    <mxGraphModel dx="1639" dy="882" grid="1" gridSize="10" guides="1" tooltips="1" connect="1" arrows="1" fold="1" page="1" pageScale="1" pageWidth="850" pageHeight="1100" math="0" shadow="0">
      <root>
        <mxCell id="0" />
        <mxCell id="1" parent="0" />
        <mxCell id="ha8XBUzy3CvQ80WleQfs-7" style="edgeStyle=orthogonalEdgeStyle;curved=1;orthogonalLoop=1;jettySize=auto;html=1;entryX=0.5;entryY=0;entryDx=0;entryDy=0;strokeColor=#FF0000;" edge="1" parent="1" source="ha8XBUzy3CvQ80WleQfs-1" target="ha8XBUzy3CvQ80WleQfs-17">
          <mxGeometry relative="1" as="geometry">
            <mxPoint x="275" y="240" as="targetPoint" />
          </mxGeometry>
        </mxCell>
        <mxCell id="ha8XBUzy3CvQ80WleQfs-11" value="Create Index" style="edgeLabel;html=1;align=center;verticalAlign=middle;resizable=0;points=[];" vertex="1" connectable="0" parent="ha8XBUzy3CvQ80WleQfs-7">
          <mxGeometry x="-0.32" y="1" relative="1" as="geometry">
            <mxPoint as="offset" />
          </mxGeometry>
        </mxCell>
        <mxCell id="ha8XBUzy3CvQ80WleQfs-1" value="" style="ellipse;html=1;shape=startState;fillColor=#000000;strokeColor=#ff0000;" vertex="1" parent="1">
          <mxGeometry x="260" y="160" width="30" height="30" as="geometry" />
        </mxCell>
        <mxCell id="ha8XBUzy3CvQ80WleQfs-3" value="" style="ellipse;html=1;shape=endState;fillColor=#000000;strokeColor=#ff0000;" vertex="1" parent="1">
          <mxGeometry x="260" y="570" width="30" height="30" as="geometry" />
        </mxCell>
        <mxCell id="ha8XBUzy3CvQ80WleQfs-6" value="" style="edgeStyle=orthogonalEdgeStyle;html=1;verticalAlign=bottom;endArrow=open;endSize=8;strokeColor=#ff0000;rounded=0;entryX=0.5;entryY=0;entryDx=0;entryDy=0;exitX=0.5;exitY=1;exitDx=0;exitDy=0;" edge="1" source="ha8XBUzy3CvQ80WleQfs-18" parent="1" target="ha8XBUzy3CvQ80WleQfs-8">
          <mxGeometry relative="1" as="geometry">
            <mxPoint x="275" y="380" as="targetPoint" />
            <mxPoint x="275" y="300" as="sourcePoint" />
          </mxGeometry>
        </mxCell>
        <mxCell id="ha8XBUzy3CvQ80WleQfs-12" value="Existing one year" style="edgeLabel;html=1;align=center;verticalAlign=middle;resizable=0;points=[];" vertex="1" connectable="0" parent="ha8XBUzy3CvQ80WleQfs-6">
          <mxGeometry x="-0.0667" y="2" relative="1" as="geometry">
            <mxPoint as="offset" />
          </mxGeometry>
        </mxCell>
        <mxCell id="ha8XBUzy3CvQ80WleQfs-8" value="Warm Index" style="swimlane;fontStyle=1;align=center;verticalAlign=middle;childLayout=stackLayout;horizontal=1;startSize=30;horizontalStack=0;resizeParent=0;resizeLast=1;container=0;fontColor=#000000;collapsible=0;rounded=1;arcSize=30;strokeColor=#ff0000;fillColor=#ffffc0;swimlaneFillColor=#ffffc0;dropTarget=0;" vertex="1" parent="1">
          <mxGeometry x="195" y="350" width="160" height="60" as="geometry" />
        </mxCell>
        <mxCell id="ha8XBUzy3CvQ80WleQfs-9" value="Read only" style="text;html=1;strokeColor=none;fillColor=none;align=center;verticalAlign=middle;spacingLeft=4;spacingRight=4;whiteSpace=wrap;overflow=hidden;rotatable=0;fontColor=#000000;" vertex="1" parent="ha8XBUzy3CvQ80WleQfs-8">
          <mxGeometry y="30" width="160" height="30" as="geometry" />
        </mxCell>
        <mxCell id="ha8XBUzy3CvQ80WleQfs-10" style="edgeStyle=orthogonalEdgeStyle;curved=1;orthogonalLoop=1;jettySize=auto;html=1;strokeColor=#FF0000;entryX=0.5;entryY=0;entryDx=0;entryDy=0;" edge="1" parent="1" source="ha8XBUzy3CvQ80WleQfs-9" target="ha8XBUzy3CvQ80WleQfs-14">
          <mxGeometry relative="1" as="geometry">
            <mxPoint x="275" y="430" as="targetPoint" />
          </mxGeometry>
        </mxCell>
        <mxCell id="ha8XBUzy3CvQ80WleQfs-16" value="Existing for 10 years" style="edgeLabel;html=1;align=center;verticalAlign=middle;resizable=0;points=[];" vertex="1" connectable="0" parent="ha8XBUzy3CvQ80WleQfs-10">
          <mxGeometry x="-0.1333" y="2" relative="1" as="geometry">
            <mxPoint as="offset" />
          </mxGeometry>
        </mxCell>
        <mxCell id="ha8XBUzy3CvQ80WleQfs-20" style="edgeStyle=orthogonalEdgeStyle;curved=1;orthogonalLoop=1;jettySize=auto;html=1;entryX=1;entryY=0;entryDx=0;entryDy=0;strokeColor=#FF0000;" edge="1" parent="1" source="ha8XBUzy3CvQ80WleQfs-14" target="ha8XBUzy3CvQ80WleQfs-18">
          <mxGeometry relative="1" as="geometry">
            <Array as="points">
              <mxPoint x="460" y="490" />
              <mxPoint x="460" y="260" />
            </Array>
          </mxGeometry>
        </mxCell>
        <mxCell id="ha8XBUzy3CvQ80WleQfs-21" value="Re-load" style="edgeLabel;html=1;align=center;verticalAlign=middle;resizable=0;points=[];" vertex="1" connectable="0" parent="ha8XBUzy3CvQ80WleQfs-20">
          <mxGeometry x="0.2455" y="8" relative="1" as="geometry">
            <mxPoint x="8" y="59" as="offset" />
          </mxGeometry>
        </mxCell>
        <mxCell id="ha8XBUzy3CvQ80WleQfs-14" value="Snapshot" style="swimlane;fontStyle=1;align=center;verticalAlign=middle;childLayout=stackLayout;horizontal=1;startSize=30;horizontalStack=0;resizeParent=0;resizeLast=1;container=0;fontColor=#000000;collapsible=0;rounded=1;arcSize=30;strokeColor=#ff0000;fillColor=#ffffc0;swimlaneFillColor=#ffffc0;dropTarget=0;" vertex="1" parent="1">
          <mxGeometry x="195" y="470" width="160" height="60" as="geometry" />
        </mxCell>
        <mxCell id="ha8XBUzy3CvQ80WleQfs-15" value="Not visible" style="text;html=1;strokeColor=none;fillColor=none;align=center;verticalAlign=middle;spacingLeft=4;spacingRight=4;whiteSpace=wrap;overflow=hidden;rotatable=0;fontColor=#000000;" vertex="1" parent="ha8XBUzy3CvQ80WleQfs-14">
          <mxGeometry y="30" width="160" height="30" as="geometry" />
        </mxCell>
        <mxCell id="ha8XBUzy3CvQ80WleQfs-17" value="Hot Index" style="swimlane;fontStyle=1;align=center;verticalAlign=middle;childLayout=stackLayout;horizontal=1;startSize=30;horizontalStack=0;resizeParent=0;resizeLast=1;container=0;fontColor=#000000;collapsible=0;rounded=1;arcSize=30;strokeColor=#ff0000;fillColor=#ffffc0;swimlaneFillColor=#ffffc0;dropTarget=0;" vertex="1" parent="1">
          <mxGeometry x="195" y="230" width="160" height="60" as="geometry" />
        </mxCell>
        <mxCell id="ha8XBUzy3CvQ80WleQfs-18" value="Read and write" style="text;html=1;strokeColor=none;fillColor=none;align=center;verticalAlign=middle;spacingLeft=4;spacingRight=4;whiteSpace=wrap;overflow=hidden;rotatable=0;fontColor=#000000;" vertex="1" parent="ha8XBUzy3CvQ80WleQfs-17">
          <mxGeometry y="30" width="160" height="30" as="geometry" />
        </mxCell>
        <mxCell id="ha8XBUzy3CvQ80WleQfs-19" style="edgeStyle=orthogonalEdgeStyle;curved=1;orthogonalLoop=1;jettySize=auto;html=1;entryX=0.5;entryY=0;entryDx=0;entryDy=0;strokeColor=#FF0000;" edge="1" parent="1" source="ha8XBUzy3CvQ80WleQfs-15" target="ha8XBUzy3CvQ80WleQfs-3">
          <mxGeometry relative="1" as="geometry" />
        </mxCell>
      </root>
    </mxGraphModel>
  </diagram>
</mxfile>
